<svg xmlns="http://www.w3.org/2000/svg" xmlns:xlink="http://www.w3.org/1999/xlink" viewBox="0,0,256,256" width="48px" height="48px" fill-rule="nonzero"><g fill="#43a047" fill-rule="nonzero" stroke="none" stroke-width="1" stroke-linecap="butt" stroke-linejoin="miter" stroke-miterlimit="10" stroke-dasharray="" stroke-dashoffset="0" font-family="none" font-weight="none" font-size="none" text-anchor="none" style="mix-blend-mode: normal"><g transform="scale(5.33333,5.33333)"><path d="M29.035,24c-0.021,-0.329 -0.035,-0.661 -0.035,-1c0,-6.08 2.86,-10 7,-10c3.411,0 6.33,2.662 7,7h2l0.001,-9h-2.001c0,0 -0.533,1.506 -1,1.16c-1.899,-1.066 -3.723,-1.132 -6.024,-1.132c-5.8,0 -10.976,5.232 -10.976,11.892c0,0.364 0.021,0.723 0.049,1.08h-2.099c0.029,-0.357 0.05,-0.716 0.05,-1.08c0,-6.66 -5.176,-11.892 -10.976,-11.892c-2.301,0 -4.125,0.065 -6.024,1.132c-0.467,0.346 -1,-1.16 -1,-1.16h-2.001l0.001,9h2c0.67,-4.338 3.589,-7 7,-7c4.14,0 7,3.92 7,10c0,0.339 -0.014,0.671 -0.035,1h-18.965v2h1.009c1.083,0 1.977,0.861 1.999,1.943c0.038,1.846 0.216,4.063 0.992,5.057c1.269,1.625 3,3 8,3c5.022,0 9.92,-4.527 11,-10h2c1.08,5.473 5.978,10 11,10c5,0 6.731,-1.375 8,-3c0.776,-0.994 0.954,-3.211 0.992,-5.057c0.022,-1.082 0.917,-1.943 1.999,-1.943h1.009v-2zM11.477,33.73c-1.605,0 -4.155,-0.006 -4.477,-1.73c-0.109,-0.583 -0.091,-2.527 -0.057,-4.046c0.025,-1.087 0.912,-1.954 2,-1.954h10.057c-0.794,4.781 -3.985,7.73 -7.523,7.73zM41,32c-0.322,1.724 -2.872,1.73 -4.477,1.73c-3.537,0 -6.729,-2.949 -7.523,-7.73h10.057c1.088,0 1.975,0.867 2,1.954c0.034,1.519 0.052,3.463 -0.057,4.046z"></path></g></g><g fill="#07991d" fill-rule="nonzero" stroke="none" stroke-width="1" stroke-linecap="butt" stroke-linejoin="miter" stroke-miterlimit="10" stroke-dasharray="" stroke-dashoffset="0" font-family="none" font-weight="none" font-size="none" text-anchor="none" style="mix-blend-mode: normal"><g><path d="M42.84,224.615h-3.42v6.68h-3.91v-18.96h7.4c1.42,0 2.67333,0.26 3.76,0.78c1.08,0.52 1.91,1.26 2.49,2.22c0.58,0.96 0.87,2.05 0.87,3.27v0c0,1.86 -0.63667,3.32667 -1.91,4.4c-1.26667,1.07333 -3.02667,1.61 -5.28,1.61zM39.42,215.495v5.95h3.49c1.03333,0 1.82,-0.24333 2.36,-0.73c0.54667,-0.48667 0.82,-1.18 0.82,-2.08v0c0,-0.92667 -0.27333,-1.67667 -0.82,-2.25c-0.55333,-0.57333 -1.31,-0.87 -2.27,-0.89v0zM63.69,224.975h3.91c-0.15333,2.04 -0.90667,3.64667 -2.26,4.82c-1.36,1.17333 -3.15,1.76 -5.37,1.76v0c-2.43333,0 -4.34667,-0.82 -5.74,-2.46c-1.39333,-1.63333 -2.09,-3.88 -2.09,-6.74v0v-1.15c0,-1.82667 0.32,-3.43333 0.96,-4.82c0.64667,-1.39333 1.56667,-2.46 2.76,-3.2c1.19333,-0.74 2.58,-1.11 4.16,-1.11v0c2.18667,0 3.94667,0.58667 5.28,1.76c1.34,1.16667 2.11333,2.81 2.32,4.93v0h-3.9c-0.1,-1.22667 -0.44333,-2.11333 -1.03,-2.66c-0.58667,-0.55333 -1.47667,-0.83 -2.67,-0.83v0c-1.30667,0 -2.28333,0.46667 -2.93,1.4c-0.64667,0.93333 -0.97667,2.38 -0.99,4.34v0v1.44c0,2.04667 0.31,3.54333 0.93,4.49c0.62,0.94667 1.6,1.42 2.94,1.42v0c1.20667,0 2.10667,-0.27667 2.7,-0.83c0.59333,-0.55333 0.93333,-1.40667 1.02,-2.56zM81.14,224.975h3.9c-0.14667,2.04 -0.9,3.64667 -2.26,4.82c-1.35333,1.17333 -3.14333,1.76 -5.37,1.76v0c-2.42667,0 -4.33667,-0.82 -5.73,-2.46c-1.39333,-1.63333 -2.09,-3.88 -2.09,-6.74v0v-1.15c0,-1.82667 0.32,-3.43333 0.96,-4.82c0.64667,-1.39333 1.56667,-2.46 2.76,-3.2c1.19333,-0.74 2.58,-1.11 4.16,-1.11v0c2.18667,0 3.94667,0.58667 5.28,1.76c1.34,1.16667 2.11333,2.81 2.32,4.93v0h-3.91c-0.09333,-1.22667 -0.43333,-2.11333 -1.02,-2.66c-0.58667,-0.55333 -1.47667,-0.83 -2.67,-0.83v0c-1.30667,0 -2.28333,0.46667 -2.93,1.4c-0.64667,0.93333 -0.97667,2.38 -0.99,4.34v0v1.44c0,2.04667 0.31,3.54333 0.93,4.49c0.62,0.94667 1.59667,1.42 2.93,1.42v0c1.20667,0 2.11,-0.27667 2.71,-0.83c0.59333,-0.55333 0.93333,-1.40667 1.02,-2.56zM103.18,221.395v0.85c0,1.86667 -0.33,3.50333 -0.99,4.91c-0.66,1.40667 -1.60333,2.49 -2.83,3.25c-1.22667,0.76667 -2.63333,1.15 -4.22,1.15v0c-1.57333,0 -2.97667,-0.38 -4.21,-1.14c-1.23333,-0.75333 -2.19,-1.83 -2.87,-3.23c-0.67333,-1.4 -1.01333,-3.01333 -1.02,-4.84v0v-0.94c0,-1.86667 0.33667,-3.50667 1.01,-4.92c0.66667,-1.42 1.61667,-2.51 2.85,-3.27c1.22667,-0.76 2.63,-1.14 4.21,-1.14c1.58,0 2.98333,0.38 4.21,1.14c1.22667,0.76 2.17667,1.85 2.85,3.27c0.67333,1.41333 1.01,3.05 1.01,4.91zM99.22,222.305v-0.92c0,-1.98667 -0.35333,-3.49667 -1.06,-4.53c-0.71333,-1.03333 -1.73,-1.55 -3.05,-1.55v0c-1.31333,0 -2.32333,0.51 -3.03,1.53c-0.71333,1.02 -1.07667,2.51333 -1.09,4.48v0v0.93c0,1.93333 0.35667,3.43333 1.07,4.5c0.71333,1.06667 1.74,1.6 3.08,1.6v0c1.30667,0 2.31333,-0.51333 3.02,-1.54c0.7,-1.02667 1.05333,-2.52667 1.06,-4.5zM117.43,220.015v3.06h-7.5v5.08h8.8v3.14h-12.71v-18.96h12.68v3.16h-8.77v4.52zM138.64,224.975h3.9c-0.14667,2.04 -0.9,3.64667 -2.26,4.82c-1.35333,1.17333 -3.14333,1.76 -5.37,1.76v0c-2.42667,0 -4.33667,-0.82 -5.73,-2.46c-1.39333,-1.63333 -2.09,-3.88 -2.09,-6.74v0v-1.15c0,-1.82667 0.32,-3.43333 0.96,-4.82c0.64667,-1.39333 1.56667,-2.46 2.76,-3.2c1.19333,-0.74 2.58,-1.11 4.16,-1.11v0c2.18667,0 3.94667,0.58667 5.28,1.76c1.34,1.16667 2.11333,2.81 2.32,4.93v0h-3.91c-0.09333,-1.22667 -0.43333,-2.11333 -1.02,-2.66c-0.58667,-0.55333 -1.47667,-0.83 -2.67,-0.83v0c-1.30667,0 -2.28333,0.46667 -2.93,1.4c-0.64667,0.93333 -0.97667,2.38 -0.99,4.34v0v1.44c0,2.04667 0.31,3.54333 0.93,4.49c0.62,0.94667 1.59667,1.42 2.93,1.42v0c1.20667,0 2.11,-0.27667 2.71,-0.83c0.59333,-0.55333 0.93333,-1.40667 1.02,-2.56zM148.53,211.295v7.44c1,-1.19333 2.25667,-1.79 3.77,-1.79v0c3.05333,0 4.6,1.77333 4.64,5.32v0v9.03h-3.76v-8.92c0,-0.80667 -0.17333,-1.40333 -0.52,-1.79c-0.34667,-0.38667 -0.92333,-0.58 -1.73,-0.58v0c-1.1,0 -1.9,0.42333 -2.4,1.27v0v10.02h-3.76v-20zM171.75,231.295h-3.8c-0.17333,-0.34 -0.3,-0.76333 -0.38,-1.27v0c-0.91333,1.02 -2.09667,1.53 -3.55,1.53v0c-1.38,0 -2.52667,-0.4 -3.44,-1.2c-0.90667,-0.8 -1.36,-1.80667 -1.36,-3.02v0c0,-1.49333 0.55333,-2.64 1.66,-3.44c1.10667,-0.8 2.70667,-1.20333 4.8,-1.21v0h1.73v-0.81c0,-0.64667 -0.16667,-1.16667 -0.5,-1.56c-0.33333,-0.39333 -0.86,-0.59 -1.58,-0.59v0c-0.63333,0 -1.13,0.15333 -1.49,0.46c-0.36,0.30667 -0.54,0.72333 -0.54,1.25v0h-3.76c0,-0.81333 0.25,-1.57 0.75,-2.27c0.50667,-0.69333 1.22,-1.23667 2.14,-1.63c0.92,-0.39333 1.95333,-0.59 3.1,-0.59v0c1.73333,0 3.11,0.43667 4.13,1.31c1.02,0.86667 1.53,2.09 1.53,3.67v0v6.11c0.00667,1.34 0.19333,2.35333 0.56,3.04v0zM164.84,228.675v0c0.55333,0 1.06333,-0.12333 1.53,-0.37c0.47333,-0.24667 0.82,-0.58 1.04,-1v0v-2.42h-1.4c-1.88667,0 -2.89,0.65 -3.01,1.95v0l-0.01,0.22c0,0.47333 0.16333,0.86 0.49,1.16c0.33333,0.30667 0.78667,0.46 1.36,0.46zM186.76,224.185v0.19c0,2.17333 -0.49333,3.91333 -1.48,5.22c-0.98,1.30667 -2.31,1.96 -3.99,1.96v0c-1.42,0 -2.57,-0.49667 -3.45,-1.49v0v6.64h-3.76v-19.5h3.49l0.13,1.38c0.91333,-1.09333 2.10333,-1.64 3.57,-1.64v0c1.73333,0 3.08333,0.64 4.05,1.92c0.96,1.28667 1.44,3.06 1.44,5.32zM183,224.105v0c0,-1.31333 -0.23333,-2.32333 -0.7,-3.03c-0.46,-0.71333 -1.13333,-1.07 -2.02,-1.07v0c-1.18,0 -1.99333,0.45 -2.44,1.35v0v5.77c0.46,0.92667 1.28,1.39 2.46,1.39v0c1.8,0 2.7,-1.47 2.7,-4.41zM189.84,213.735h3.76v3.47h2.41v2.76h-2.41v7.03c0,0.52 0.1,0.89333 0.3,1.12c0.2,0.22667 0.58,0.34 1.14,0.34v0c0.42,0 0.79,-0.03 1.11,-0.09v0v2.85c-0.74,0.22667 -1.5,0.34 -2.28,0.34v0c-2.64,0 -3.98333,-1.33333 -4.03,-4v0v-7.59h-2.06v-2.76h2.06zM204.59,231.555v0c-2.06667,0 -3.75,-0.63333 -5.05,-1.9c-1.29333,-1.27333 -1.94,-2.96333 -1.94,-5.07v0v-0.36c0,-1.42 0.27333,-2.68667 0.82,-3.8c0.54667,-1.11333 1.32,-1.97333 2.32,-2.58c1,-0.6 2.14333,-0.9 3.43,-0.9v0c1.92667,0 3.44333,0.60667 4.55,1.82c1.10667,1.21333 1.66,2.93667 1.66,5.17v0v1.54h-8.97c0.12,0.92 0.48667,1.65667 1.1,2.21c0.61333,0.55333 1.39,0.83 2.33,0.83v0c1.44667,0 2.57667,-0.52333 3.39,-1.57v0l1.85,2.07c-0.56,0.8 -1.32333,1.42333 -2.29,1.87c-0.96,0.44667 -2.02667,0.67 -3.2,0.67zM204.16,219.985v0c-0.74667,0 -1.35333,0.25333 -1.82,0.76c-0.46,0.50667 -0.75667,1.22667 -0.89,2.16v0h5.23v-0.3c-0.01333,-0.83333 -0.23667,-1.47667 -0.67,-1.93c-0.43333,-0.46 -1.05,-0.69 -1.85,-0.69zM220.49,217.115l-0.06,3.62c-0.50667,-0.07333 -0.95667,-0.11 -1.35,-0.11v0c-1.42,0 -2.35333,0.48333 -2.8,1.45v0v9.22h-3.76v-14.09h3.55l0.11,1.68c0.75333,-1.29333 1.79667,-1.94 3.13,-1.94v0c0.42,0 0.81333,0.05667 1.18,0.17z"></path></g></g></svg>